<?xml version="1.0" encoding="UTF-8"?>
<svg width="1200pt" height="1200pt" version="1.1" viewBox="0 0 1200 1200" xmlns="http://www.w3.org/2000/svg">
 <path d="m1152 913.2-439.2-757.2c-50.398-86.398-176.4-86.398-226.8 0l-438 757.2c-50.398 87.602 12 196.8 112.8 196.8h878.4c100.8 0 163.2-109.2 112.8-196.8zm-601.2-577.2c0-27.602 21.602-49.199 49.199-49.199 27.602 0 49.199 21.602 49.199 49.199v362.4c0 27.602-21.602 49.199-49.199 49.199-27.602 0-49.199-21.602-49.199-49.199zm49.199 634.8c-40.801 0-74.398-33.602-74.398-74.398 0-40.801 33.602-74.398 74.398-74.398 40.801 0 74.398 33.602 74.398 74.398s-33.598 74.398-74.398 74.398z" fill="#f9100f"/>
</svg>
